<svg xmlns="http://www.w3.org/2000/svg" viewBox="0 7.28000020980835 541.5999755859375 40.94000244140625" data-asc="0.94580078125"><g fill="#2d2f01"><g fill="#2d2f01" transform="translate(0, 0)"><path d="M3.44 14.60L0 14.60L0 12.70L24.68 12.70L24.68 14.60L20.29 14.60L27.05 34.62L30.71 22.31L27.91 14.60L26.29 14.60L26.29 12.70L49.15 12.70L49.15 14.60L44.75 14.60L51.46 34.50L56.81 16.11Q56.88 15.89 56.88 15.72Q56.88 15.41 56.56 15.20Q56.23 14.99 55.63 14.86Q55.03 14.72 54.21 14.66Q53.39 14.60 52.42 14.60L52.42 12.70L64.04 12.70L64.04 14.60Q61.87 14.60 60.83 14.93Q59.79 15.26 59.52 16.11L50.29 47.29L39.79 47.29L32.10 26.10L25.83 47.29L15.36 47.29L3.44 14.60ZM65.84 33.72Q65.84 30.57 66.99 27.91Q68.14 25.24 70.43 23.30Q72.73 21.36 76.20 20.28Q79.66 19.19 84.30 19.19Q88.94 19.19 92.40 20.28Q95.85 21.36 98.14 23.30Q100.44 25.24 101.59 27.91Q102.73 30.57 102.73 33.72Q102.73 36.87 101.59 39.51Q100.44 42.16 98.14 44.10Q95.85 46.04 92.40 47.13Q88.94 48.22 84.30 48.22Q79.66 48.22 76.20 47.13Q72.73 46.04 70.43 44.10Q68.14 42.16 66.99 39.51Q65.84 36.87 65.84 33.72M84.30 46.70Q85.23 46.70 85.89 46.09Q86.55 45.48 86.96 43.99Q87.38 42.50 87.56 40.00Q87.74 37.50 87.74 33.72Q87.74 29.91 87.56 27.40Q87.38 24.90 86.96 23.41Q86.55 21.92 85.89 21.31Q85.23 20.70 84.30 20.70Q83.35 20.70 82.69 21.31Q82.03 21.92 81.62 23.41Q81.20 24.90 81.02 27.40Q80.83 29.91 80.83 33.72Q80.83 37.50 81.02 40.00Q81.20 42.50 81.62 43.99Q82.03 45.48 82.69 46.09Q83.35 46.70 84.30 46.70ZM107.08 33.72Q107.08 30.81 108.02 28.17Q108.96 25.54 110.88 23.55Q112.79 21.56 115.70 20.37Q118.60 19.19 122.53 19.19Q125.22 19.19 127.08 19.86Q128.93 20.53 130.15 21.56L130.15 12.13L125.90 12.13L125.90 10.38L144.70 10.38L144.70 45.53L148.97 45.53L148.97 47.29L130.15 47.29L130.15 45.34Q129.15 46.68 127.34 47.45Q125.54 48.22 122.53 48.22Q118.60 48.22 115.70 47.05Q112.79 45.87 110.88 43.87Q108.96 41.87 108.02 39.25Q107.08 36.62 107.08 33.72M126.25 45.41Q127.15 45.41 127.91 45.03Q128.66 44.65 129.21 43.81Q129.76 42.97 130.08 41.65Q130.40 40.33 130.40 38.43L130.40 27.78Q130.40 26.83 130.13 25.78Q129.86 24.73 129.30 23.85Q128.74 22.97 127.89 22.40Q127.05 21.83 125.93 21.83Q124.90 21.83 124.17 22.45Q123.44 23.07 122.97 24.49Q122.51 25.90 122.29 28.16Q122.07 30.42 122.07 33.72Q122.07 37.04 122.28 39.28Q122.49 41.53 122.97 42.88Q123.46 44.24 124.27 44.82Q125.07 45.41 126.25 45.41ZM153.42 40.89Q153.42 39.01 154.13 37.66Q154.83 36.30 156.13 35.36Q157.42 34.42 159.23 33.85Q161.04 33.28 163.24 32.96Q165.45 32.64 167.99 32.53Q170.53 32.42 173.27 32.42L173.27 31.05Q173.27 27.93 172.84 26.05Q172.41 24.17 171.55 23.17Q170.68 22.17 169.41 21.86Q168.14 21.56 166.46 21.56Q165.55 21.56 164.54 21.70Q163.53 21.85 162.74 22.05Q163.87 22.17 164.82 22.61Q165.77 23.05 166.46 23.71Q167.14 24.37 167.52 25.17Q167.90 25.98 167.90 26.81Q167.90 27.83 167.38 28.74Q166.87 29.64 165.97 30.31Q165.06 30.98 163.87 31.37Q162.67 31.76 161.30 31.76Q159.94 31.76 158.75 31.37Q157.57 30.98 156.68 30.31Q155.79 29.64 155.27 28.74Q154.76 27.83 154.76 26.81Q154.76 25.44 155.51 24.34Q156.25 23.24 157.53 22.40Q158.81 21.56 160.56 20.95Q162.30 20.34 164.31 19.95Q166.31 19.56 168.47 19.37Q170.63 19.19 172.78 19.19Q176.59 19.19 179.41 19.71Q182.23 20.24 184.09 21.57Q185.96 22.90 186.89 25.21Q187.82 27.51 187.82 31.05L187.82 41.28Q187.82 43.12 188.20 44.10Q188.57 45.09 189.60 45.09Q190.11 45.09 190.44 44.76Q190.77 44.43 190.95 43.90Q191.14 43.36 191.21 42.65Q191.28 41.94 191.28 41.21L191.28 38.79L193.46 38.79L193.46 41.21Q193.46 43.16 192.96 44.51Q192.46 45.85 191.22 46.68Q189.99 47.51 187.93 47.86Q185.86 48.22 182.74 48.22Q181.15 48.22 179.77 48.05Q178.39 47.88 177.26 47.46Q176.12 47.05 175.29 46.36Q174.46 45.68 173.97 44.65Q173.24 45.78 172.02 46.47Q170.80 47.17 169.38 47.56Q167.97 47.95 166.53 48.08Q165.09 48.22 163.89 48.22Q161.04 48.22 159.03 47.62Q157.03 47.02 155.79 46.02Q154.54 45.02 153.98 43.69Q153.42 42.36 153.42 40.89M167.50 40.63Q167.50 42.43 168.16 43.54Q168.82 44.65 170.34 44.65Q171.61 44.65 172.44 43.74Q173.27 42.82 173.27 41.28L173.27 34.67Q171.51 34.67 170.39 34.99Q169.26 35.30 168.62 36.00Q167.97 36.69 167.74 37.84Q167.50 38.99 167.50 40.63ZM222.19 45.36L226.44 45.36L226.44 14.60L222.92 14.60L216.94 26.66L215.26 26.66L215.26 12.70L254.49 12.70L254.49 26.66L252.78 26.66L246.83 14.60L243.29 14.60L243.29 45.36L247.56 45.36L247.56 47.29L222.19 47.29L222.19 45.36ZM258.06 45.53L262.33 45.53L262.33 12.13L258.06 12.13L258.06 10.38L276.86 10.38L276.86 45.53L281.13 45.53L281.13 47.29L258.06 47.29L258.06 45.53ZM284.57 33.45Q284.57 30.18 285.91 27.54Q287.26 24.90 289.64 23.05Q292.02 21.19 295.28 20.19Q298.54 19.19 302.34 19.19Q305.27 19.19 307.65 19.78Q310.03 20.36 311.88 21.37Q313.72 22.39 315.05 23.78Q316.38 25.17 317.25 26.78Q318.12 28.39 318.53 30.16Q318.95 31.93 318.95 33.72L299.37 33.72Q299.37 37.45 299.69 39.79Q300.02 42.14 300.74 43.47Q301.46 44.80 302.60 45.29Q303.74 45.78 305.35 45.78Q307.40 45.78 309.20 45.26Q311.01 44.75 312.44 43.81Q313.87 42.87 314.82 41.54Q315.77 40.21 316.11 38.55L318.41 38.55Q318.16 40.82 317.02 42.61Q315.87 44.41 313.98 45.65Q312.08 46.90 309.53 47.56Q306.98 48.22 303.96 48.22Q299.19 48.22 295.57 47.23Q291.94 46.24 289.50 44.35Q287.06 42.46 285.82 39.71Q284.57 36.96 284.57 33.45M306.23 31.25Q306.15 28.20 305.93 26.17Q305.71 24.15 305.30 22.92Q304.88 21.70 304.27 21.20Q303.66 20.70 302.81 20.70Q301.95 20.70 301.33 21.20Q300.71 21.70 300.29 22.92Q299.88 24.15 299.66 26.17Q299.44 28.20 299.39 31.25L306.23 31.25ZM323.10 45.53L327.37 45.53L327.37 21.88L323.10 21.88L323.10 20.12L341.89 20.12L341.89 23.24Q342.68 22.29 343.79 21.53Q344.90 20.78 346.24 20.25Q347.58 19.73 349.11 19.46Q350.63 19.19 352.25 19.19Q355.57 19.19 357.73 20.06Q359.89 20.92 361.13 22.52Q362.38 24.12 362.87 26.40Q363.35 28.69 363.35 31.49L363.35 45.53L367.63 45.53L367.63 47.29L346.39 47.29L346.39 45.53L348.83 45.53L348.83 31.49Q348.83 28.98 348.68 27.38Q348.54 25.78 348.17 24.87Q347.80 23.95 347.19 23.60Q346.58 23.24 345.65 23.24Q344.73 23.24 344.02 23.63Q343.31 24.02 342.83 24.73Q342.36 25.44 342.13 26.42Q341.89 27.39 341.89 28.54L341.89 45.53L344.31 45.53L344.31 47.29L323.10 47.29L323.10 45.53ZM400.12 17.65Q398.71 17.65 397.39 17.37Q396.07 17.09 395.07 16.47Q394.07 15.84 393.46 14.87Q392.85 13.89 392.85 12.48Q392.85 11.06 393.46 10.07Q394.07 9.08 395.07 8.46Q396.07 7.84 397.39 7.56Q398.71 7.28 400.12 7.28Q401.51 7.28 402.83 7.56Q404.15 7.84 405.15 8.46Q406.15 9.08 406.76 10.06Q407.37 11.04 407.37 12.45Q407.37 13.87 406.76 14.86Q406.15 15.84 405.15 16.47Q404.15 17.09 402.83 17.37Q401.51 17.65 400.12 17.65M388.84 45.53L393.12 45.53L393.12 21.88L388.84 21.88L388.84 20.12L407.64 20.12L407.64 45.53L411.91 45.53L411.91 47.29L388.84 47.29L388.84 45.53ZM417.68 34.01L419.31 34.01Q419.92 35.21 420.83 36.58Q421.73 37.96 422.95 39.33Q424.17 40.70 425.73 41.96Q427.29 43.21 429.22 44.17Q431.15 45.12 433.47 45.69Q435.79 46.26 438.55 46.26Q439.36 46.26 440.36 46.18Q441.36 46.09 442.24 45.81Q443.12 45.53 443.71 45.01Q444.31 44.48 444.31 43.60Q444.31 42.68 443.54 41.96Q442.77 41.24 441.21 40.56Q439.65 39.89 437.27 39.21Q434.89 38.53 431.67 37.67Q424.49 35.82 421.03 32.48Q417.58 29.15 417.58 24.34Q417.58 21.34 418.81 18.99Q420.04 16.65 422.18 15.05Q424.32 13.45 427.19 12.61Q430.05 11.77 433.30 11.77Q434.96 11.77 436.78 12.06Q438.60 12.35 440.33 12.87Q442.07 13.38 443.60 14.10Q445.14 14.82 446.29 15.67L449.98 12.11L451.66 12.11L451.66 22.73L450.12 22.73Q449.05 20.80 447.36 19.14Q445.68 17.48 443.51 16.26Q441.33 15.04 438.70 14.33Q436.06 13.62 433.11 13.62Q432.54 13.62 431.67 13.66Q430.79 13.70 429.94 13.92Q429.10 14.14 428.49 14.61Q427.88 15.09 427.88 15.94Q427.88 17.33 430.41 18.62Q432.93 19.90 437.94 21.22Q440.06 21.78 442.04 22.40Q444.02 23.02 445.74 23.82Q447.46 24.61 448.86 25.62Q450.27 26.64 451.27 28.00Q452.27 29.37 452.82 31.13Q453.37 32.89 453.37 35.18Q453.37 37.84 452.39 40.21Q451.42 42.58 449.48 44.36Q447.53 46.14 444.65 47.18Q441.77 48.22 437.99 48.22Q435.91 48.22 434.08 47.90Q432.25 47.58 430.53 46.95Q428.81 46.31 427.12 45.35Q425.44 44.38 423.66 43.09L419.51 47.75L417.68 47.75L417.68 34.01ZM458.54 33.45Q458.54 30.18 459.89 27.54Q461.23 24.90 463.61 23.05Q465.99 21.19 469.25 20.19Q472.51 19.19 476.32 19.19Q479.25 19.19 481.63 19.78Q484.01 20.36 485.85 21.37Q487.70 22.39 489.03 23.78Q490.36 25.17 491.22 26.78Q492.09 28.39 492.50 30.16Q492.92 31.93 492.92 33.72L473.34 33.72Q473.34 37.45 473.67 39.79Q474.00 42.14 474.72 43.47Q475.44 44.80 476.57 45.29Q477.71 45.78 479.32 45.78Q481.37 45.78 483.18 45.26Q484.99 44.75 486.41 43.81Q487.84 42.87 488.79 41.54Q489.75 40.21 490.09 38.55L492.38 38.55Q492.14 40.82 490.99 42.61Q489.84 44.41 487.95 45.65Q486.06 46.90 483.51 47.56Q480.96 48.22 477.93 48.22Q473.17 48.22 469.54 47.23Q465.92 46.24 463.48 44.35Q461.04 42.46 459.79 39.71Q458.54 36.96 458.54 33.45M480.20 31.25Q480.13 28.20 479.91 26.17Q479.69 24.15 479.27 22.92Q478.86 21.70 478.25 21.20Q477.64 20.70 476.78 20.70Q475.93 20.70 475.31 21.20Q474.68 21.70 474.27 22.92Q473.85 24.15 473.63 26.17Q473.41 28.20 473.36 31.25L480.20 31.25ZM497.07 45.53L501.34 45.53L501.34 21.88L497.07 21.88L497.07 20.12L515.87 20.12L515.87 23.24Q516.65 22.29 517.76 21.53Q518.87 20.78 520.21 20.25Q521.56 19.73 523.08 19.46Q524.61 19.19 526.22 19.19Q529.54 19.19 531.70 20.06Q533.86 20.92 535.11 22.52Q536.35 24.12 536.84 26.40Q537.33 28.69 537.33 31.49L537.33 45.53L541.60 45.53L541.60 47.29L520.36 47.29L520.36 45.53L522.80 45.53L522.80 31.49Q522.80 28.98 522.66 27.38Q522.51 25.78 522.14 24.87Q521.78 23.95 521.17 23.60Q520.56 23.24 519.63 23.24Q518.70 23.24 517.99 23.63Q517.29 24.02 516.81 24.73Q516.33 25.44 516.10 26.42Q515.87 27.39 515.87 28.54L515.87 45.53L518.29 45.53L518.29 47.29L497.07 47.29L497.07 45.53Z"/></g></g></svg>