<svg xmlns="http://www.w3.org/2000/svg" viewBox="0 8.729999542236328 649.9199829101562 49.130001068115234" data-asc="0.94580078125"><g fill="#2d2f01"><g fill="#2d2f01" transform="translate(0, 0)"><path d="M4.13 17.52L0 17.52L0 15.23L29.62 15.23L29.62 17.52L24.35 17.52L32.46 41.54L36.86 26.78L33.49 17.52L31.55 17.52L31.55 15.23L58.97 15.23L58.97 17.52L53.70 17.52L61.76 41.40L68.17 19.34Q68.26 19.07 68.26 18.87Q68.26 18.49 67.87 18.24Q67.47 17.99 66.75 17.83Q66.04 17.67 65.05 17.59Q64.07 17.52 62.90 17.52L62.90 15.23L76.85 15.23L76.85 17.52Q74.24 17.52 72.99 17.92Q71.75 18.31 71.43 19.34L60.35 56.75L47.75 56.75L38.53 31.32L31.00 56.75L18.43 56.75L4.13 17.52ZM79.01 40.46Q79.01 36.68 80.39 33.49Q81.77 30.29 84.52 27.96Q87.28 25.63 91.44 24.33Q95.60 23.03 101.16 23.03Q106.73 23.03 110.87 24.33Q115.02 25.63 117.77 27.96Q120.53 30.29 121.90 33.49Q123.28 36.68 123.28 40.46Q123.28 44.24 121.90 47.42Q120.53 50.60 117.77 52.92Q115.02 55.25 110.87 56.56Q106.73 57.86 101.16 57.86Q95.60 57.86 91.44 56.56Q87.28 55.25 84.52 52.92Q81.77 50.60 80.39 47.42Q79.01 44.24 79.01 40.46M101.16 56.04Q102.28 56.04 103.07 55.31Q103.86 54.58 104.36 52.79Q104.85 51.01 105.07 48.00Q105.29 45 105.29 40.46Q105.29 35.89 105.07 32.89Q104.85 29.88 104.36 28.10Q103.86 26.31 103.07 25.58Q102.28 24.84 101.16 24.84Q100.02 24.84 99.23 25.58Q98.44 26.31 97.94 28.10Q97.44 29.88 97.22 32.89Q97.00 35.89 97.00 40.46Q97.00 45 97.22 48.00Q97.44 51.01 97.94 52.79Q98.44 54.58 99.23 55.31Q100.02 56.04 101.16 56.04ZM128.50 40.46Q128.50 36.97 129.62 33.81Q130.75 30.64 133.05 28.26Q135.35 25.87 138.84 24.45Q142.32 23.03 147.04 23.03Q150.26 23.03 152.49 23.83Q154.72 24.64 156.18 25.87L156.18 14.56L151.08 14.56L151.08 12.45L173.64 12.45L173.64 54.64L178.77 54.64L178.77 56.75L156.18 56.75L156.18 54.40Q154.98 56.02 152.81 56.94Q150.64 57.86 147.04 57.86Q142.32 57.86 138.84 56.46Q135.35 55.05 133.05 52.65Q130.75 50.24 129.62 47.09Q128.50 43.95 128.50 40.46M151.49 54.49Q152.58 54.49 153.49 54.04Q154.39 53.58 155.05 52.57Q155.71 51.56 156.09 49.98Q156.47 48.40 156.47 46.11L156.47 33.34Q156.47 32.20 156.15 30.94Q155.83 29.68 155.16 28.62Q154.48 27.57 153.47 26.88Q152.46 26.19 151.11 26.19Q149.88 26.19 149.00 26.94Q148.13 27.69 147.57 29.38Q147.01 31.08 146.75 33.79Q146.48 36.50 146.48 40.46Q146.48 44.44 146.73 47.14Q146.98 49.83 147.57 51.46Q148.15 53.09 149.12 53.79Q150.09 54.49 151.49 54.49ZM184.10 49.07Q184.10 46.82 184.95 45.19Q185.80 43.56 187.35 42.44Q188.91 41.31 191.07 40.62Q193.24 39.93 195.89 39.55Q198.54 39.17 201.59 39.04Q204.64 38.91 207.92 38.91L207.92 37.27Q207.92 33.52 207.41 31.26Q206.89 29.00 205.85 27.80Q204.81 26.60 203.29 26.24Q201.77 25.87 199.75 25.87Q198.66 25.87 197.45 26.04Q196.23 26.22 195.29 26.46Q196.64 26.60 197.78 27.13Q198.93 27.66 199.75 28.45Q200.57 29.24 201.02 30.21Q201.47 31.17 201.47 32.17Q201.47 33.40 200.86 34.48Q200.24 35.57 199.16 36.37Q198.08 37.18 196.64 37.65Q195.21 38.12 193.56 38.12Q191.92 38.12 190.50 37.65Q189.08 37.18 188.01 36.37Q186.94 35.57 186.33 34.48Q185.71 33.40 185.71 32.17Q185.71 30.53 186.61 29.21Q187.50 27.89 189.04 26.88Q190.58 25.87 192.67 25.14Q194.77 24.40 197.17 23.94Q199.57 23.47 202.16 23.25Q204.76 23.03 207.33 23.03Q211.90 23.03 215.29 23.66Q218.67 24.29 220.91 25.88Q223.15 27.48 224.27 30.25Q225.38 33.02 225.38 37.27L225.38 49.54Q225.38 51.74 225.83 52.92Q226.29 54.11 227.52 54.11Q228.13 54.11 228.53 53.72Q228.93 53.32 229.15 52.68Q229.37 52.03 229.45 51.18Q229.54 50.33 229.54 49.45L229.54 46.55L232.15 46.55L232.15 49.45Q232.15 51.80 231.55 53.41Q230.95 55.02 229.47 56.02Q227.99 57.01 225.51 57.44Q223.04 57.86 219.29 57.86Q217.38 57.86 215.73 57.66Q214.07 57.45 212.71 56.95Q211.35 56.46 210.35 55.63Q209.36 54.81 208.77 53.58Q207.89 54.93 206.43 55.77Q204.96 56.60 203.26 57.07Q201.56 57.54 199.83 57.70Q198.11 57.86 196.67 57.86Q193.24 57.86 190.84 57.14Q188.44 56.43 186.94 55.22Q185.45 54.02 184.78 52.43Q184.10 50.83 184.10 49.07M201.01 48.75Q201.01 50.92 201.80 52.25Q202.59 53.58 204.40 53.58Q205.93 53.58 206.92 52.49Q207.92 51.39 207.92 49.54L207.92 41.60Q205.81 41.60 204.46 41.98Q203.12 42.36 202.34 43.20Q201.56 44.03 201.28 45.41Q201.01 46.79 201.01 48.75ZM266.63 54.43L271.73 54.43L271.73 17.52L267.51 17.52L260.33 31.99L258.31 31.99L258.31 15.23L305.39 15.23L305.39 31.99L303.34 31.99L296.19 17.52L291.94 17.52L291.94 54.43L297.07 54.43L297.07 56.75L266.63 56.75L266.63 54.43ZM309.67 54.64L314.79 54.64L314.79 14.56L309.67 14.56L309.67 12.45L332.23 12.45L332.23 54.64L337.35 54.64L337.35 56.75L309.67 56.75L309.67 54.64ZM341.48 40.14Q341.48 36.21 343.10 33.05Q344.71 29.88 347.56 27.66Q350.42 25.43 354.33 24.23Q358.24 23.03 362.81 23.03Q366.33 23.03 369.18 23.73Q372.04 24.43 374.25 25.65Q376.46 26.87 378.06 28.54Q379.66 30.21 380.70 32.14Q381.74 34.07 382.24 36.20Q382.73 38.32 382.73 40.46L359.24 40.46Q359.24 44.94 359.63 47.75Q360.03 50.57 360.89 52.16Q361.76 53.76 363.12 54.35Q364.48 54.93 366.42 54.93Q368.88 54.93 371.04 54.32Q373.21 53.70 374.93 52.57Q376.64 51.45 377.78 49.85Q378.93 48.25 379.34 46.26L382.09 46.26Q381.80 48.98 380.42 51.14Q379.04 53.29 376.77 54.79Q374.50 56.28 371.44 57.07Q368.38 57.86 364.75 57.86Q359.03 57.86 354.68 56.67Q350.33 55.49 347.40 53.22Q344.47 50.95 342.98 47.65Q341.48 44.36 341.48 40.14M367.47 37.50Q367.38 33.84 367.12 31.41Q366.86 28.97 366.36 27.51Q365.86 26.04 365.13 25.44Q364.39 24.84 363.37 24.84Q362.34 24.84 361.60 25.44Q360.85 26.04 360.35 27.51Q359.85 28.97 359.59 31.41Q359.33 33.84 359.27 37.50L367.47 37.50ZM387.71 54.64L392.84 54.64L392.84 26.25L387.71 26.25L387.71 24.14L410.27 24.14L410.27 27.89Q411.21 26.75 412.54 25.84Q413.88 24.93 415.49 24.30Q417.10 23.67 418.93 23.35Q420.76 23.03 422.70 23.03Q426.68 23.03 429.27 24.07Q431.87 25.11 433.36 27.03Q434.85 28.95 435.44 31.68Q436.03 34.42 436.03 37.79L436.03 54.64L441.15 54.64L441.15 56.75L415.66 56.75L415.66 54.64L418.59 54.64L418.59 37.79Q418.59 34.78 418.42 32.86Q418.24 30.94 417.80 29.84Q417.36 28.74 416.63 28.32Q415.90 27.89 414.79 27.89Q413.67 27.89 412.82 28.36Q411.97 28.83 411.40 29.68Q410.83 30.53 410.55 31.70Q410.27 32.87 410.27 34.25L410.27 54.64L413.17 54.64L413.17 56.75L387.71 56.75L387.71 54.64ZM480.15 21.18Q478.45 21.18 476.87 20.84Q475.28 20.51 474.08 19.76Q472.88 19.01 472.15 17.84Q471.42 16.67 471.42 14.97Q471.42 13.27 472.15 12.08Q472.88 10.90 474.08 10.15Q475.28 9.40 476.87 9.07Q478.45 8.73 480.15 8.73Q481.82 8.73 483.40 9.07Q484.98 9.40 486.18 10.15Q487.38 10.90 488.12 12.07Q488.85 13.24 488.85 14.94Q488.85 16.64 488.12 17.83Q487.38 19.01 486.18 19.76Q484.98 20.51 483.40 20.84Q481.82 21.18 480.15 21.18M466.61 54.64L471.74 54.64L471.74 26.25L466.61 26.25L466.61 24.14L489.17 24.14L489.17 54.64L494.30 54.64L494.30 56.75L466.61 56.75L466.61 54.64ZM501.21 40.81L503.17 40.81Q503.91 42.25 504.99 43.90Q506.07 45.56 507.54 47.20Q509.00 48.84 510.88 50.35Q512.75 51.86 515.07 53.00Q517.38 54.14 520.17 54.83Q522.95 55.52 526.26 55.52Q527.23 55.52 528.43 55.42Q529.63 55.31 530.68 54.98Q531.74 54.64 532.46 54.01Q533.17 53.38 533.17 52.32Q533.17 51.21 532.25 50.35Q531.33 49.48 529.45 48.68Q527.58 47.87 524.72 47.05Q521.87 46.23 518.00 45.21Q509.38 42.98 505.24 38.98Q501.09 34.98 501.09 29.21Q501.09 25.61 502.57 22.79Q504.05 19.98 506.62 18.06Q509.18 16.14 512.62 15.13Q516.06 14.12 519.96 14.12Q521.95 14.12 524.14 14.47Q526.32 14.82 528.40 15.44Q530.48 16.05 532.32 16.92Q534.17 17.78 535.55 18.81L539.97 14.53L541.99 14.53L541.99 27.28L540.15 27.28Q538.86 24.96 536.84 22.97Q534.81 20.98 532.21 19.51Q529.60 18.05 526.44 17.20Q523.27 16.35 519.73 16.35Q519.05 16.35 518.00 16.39Q516.94 16.44 515.93 16.70Q514.92 16.96 514.19 17.53Q513.46 18.11 513.46 19.13Q513.46 20.80 516.49 22.34Q519.52 23.88 525.53 25.46Q528.08 26.13 530.45 26.88Q532.82 27.63 534.89 28.58Q536.95 29.53 538.64 30.75Q540.32 31.96 541.52 33.60Q542.72 35.24 543.38 37.35Q544.04 39.46 544.04 42.22Q544.04 45.41 542.87 48.25Q541.70 51.09 539.37 53.23Q537.04 55.37 533.58 56.62Q530.13 57.86 525.59 57.86Q523.10 57.86 520.90 57.48Q518.70 57.10 516.64 56.34Q514.57 55.58 512.55 54.42Q510.53 53.26 508.39 51.71L503.41 57.30L501.21 57.30L501.21 40.81ZM550.25 40.14Q550.25 36.21 551.87 33.05Q553.48 29.88 556.33 27.66Q559.19 25.43 563.10 24.23Q567.01 23.03 571.58 23.03Q575.10 23.03 577.95 23.73Q580.81 24.43 583.02 25.65Q585.23 26.87 586.83 28.54Q588.43 30.21 589.47 32.14Q590.51 34.07 591.01 36.20Q591.50 38.32 591.50 40.46L568.01 40.46Q568.01 44.94 568.40 47.75Q568.80 50.57 569.66 52.16Q570.53 53.76 571.89 54.35Q573.25 54.93 575.19 54.93Q577.65 54.93 579.81 54.32Q581.98 53.70 583.70 52.57Q585.41 51.45 586.55 49.85Q587.70 48.25 588.11 46.26L590.86 46.26Q590.57 48.98 589.19 51.14Q587.81 53.29 585.54 54.79Q583.27 56.28 580.21 57.07Q577.15 57.86 573.52 57.86Q567.80 57.86 563.45 56.67Q559.10 55.49 556.17 53.22Q553.24 50.95 551.75 47.65Q550.25 44.36 550.25 40.14M576.24 37.50Q576.15 33.84 575.89 31.41Q575.63 28.97 575.13 27.51Q574.63 26.04 573.90 25.44Q573.16 24.84 572.14 24.84Q571.11 24.84 570.37 25.44Q569.62 26.04 569.12 27.51Q568.62 28.97 568.36 31.41Q568.10 33.84 568.04 37.50L576.24 37.50ZM596.48 54.64L601.61 54.64L601.61 26.25L596.48 26.25L596.48 24.14L619.04 24.14L619.04 27.89Q619.98 26.75 621.31 25.84Q622.65 24.93 624.26 24.30Q625.87 23.67 627.70 23.35Q629.53 23.03 631.46 23.03Q635.45 23.03 638.04 24.07Q640.63 25.11 642.13 27.03Q643.62 28.95 644.21 31.68Q644.79 34.42 644.79 37.79L644.79 54.64L649.92 54.64L649.92 56.75L624.43 56.75L624.43 54.64L627.36 54.64L627.36 37.79Q627.36 34.78 627.19 32.86Q627.01 30.94 626.57 29.84Q626.13 28.74 625.40 28.32Q624.67 27.89 623.55 27.89Q622.44 27.89 621.59 28.36Q620.74 28.83 620.17 29.68Q619.60 30.53 619.32 31.70Q619.04 32.87 619.04 34.25L619.04 54.64L621.94 54.64L621.94 56.75L596.48 56.75L596.48 54.64Z"/></g></g></svg>